<svg width="18" height="20" fill="none" xmlns="http://www.w3.org/2000/svg"><path d="M15.252 6.542c-.323-.897-1.57-1.36-2.153-1.48-.404-.09-1.498-.238-2.646-.112S8.255 6.288 7.874 6.878c-.523 1.047-.679 2.756-.79 4.258-.063.827-.368 2.5-.533 3.322-.164.822-.931 1.228-1.828 1.749-.897.52-1.887.284-2.32 0-.449-.307-1.397-1.103-.985-1.767.413-.663.81-.446.944-.472.135-.025.556-.25.04-.472 0 0-1.928-.472-2.286 1.59-.367 2.107.62 3.31 1.188 3.655.643.485 2.592 1.3 5.247.672 3.319-.785 4.54-1.863 5.253-2.612 1.851-1.947 2.99-4.845 3.448-6.447.269-.942.403-2.69 0-3.812z" fill="#D1333C"/><path d="M11.898 3.236c-1.45-.414-2.832 1.56-2.832 1.807 0 .246.318.145.318.145.723-.116 2.179-.162 3.034 0 .856.161 2.457.88 2.948 1.371.173-.028.208-.104.347-.288.173-.232-.172-.998-.347-1.228-.231-.304-.665-.4-.925-.751-.174-.235-.347-.48-.347-.665 0-.231.867-1.17 1.272-1.474.292-.219 1.782-.915 2.543-1.184.106-.077.202-.324-.26-.694-.578-.462-.752-.202-1.243-.202-.393 0-1.705 1.214-2.312 1.82-.606.607-1.416 1.894-1.473 1.965-.058.072-.492.303-.636.203-.144-.1.116-.767-.087-.825z" fill="#3A9C16"/></svg>